<?xml version="1.0" standalone="no"?>
<!DOCTYPE svg PUBLIC "-//W3C//DTD SVG 20010904//EN"
 "http://www.w3.org/TR/2001/REC-SVG-20010904/DTD/svg10.dtd">
<svg version="1.0" xmlns="http://www.w3.org/2000/svg"
 width="512.000000pt" height="512.000000pt" viewBox="0 0 512.000000 512.000000"
 preserveAspectRatio="xMidYMid meet">
<metadata>
Created by potrace 1.14, written by Peter Selinger 2001-2017
</metadata>
<g transform="translate(0.000000,512.000000) scale(0.100000,-0.100000)"
fill="#000000" stroke="none">
<path d="M2408 5115 c-1 -1 -30 -6 -63 -10 -174 -19 -396 -88 -563 -175 -79
-42 -227 -133 -242 -150 -3 -3 -27 -23 -55 -45 -77 -61 -214 -202 -276 -285
-182 -243 -301 -531 -336 -820 -10 -80 -10 -324 -1 -405 20 -174 75 -366 147
-521 35 -74 40 -93 36 -137 -2 -29 -7 -88 -10 -132 -4 -72 -9 -131 -20 -265
-2 -25 -7 -85 -11 -135 -3 -49 -8 -105 -10 -125 -1 -19 -5 -75 -8 -125 -4 -49
-8 -110 -11 -135 -3 -25 -7 -81 -10 -125 -3 -44 -7 -102 -10 -130 -2 -27 -7
-90 -10 -140 -4 -49 -8 -101 -10 -115 -2 -14 -7 -77 -10 -140 -4 -63 -8 -122
-10 -131 -2 -9 -6 -63 -10 -120 -3 -57 -8 -120 -10 -139 -2 -19 -6 -69 -9
-110 -15 -186 -17 -218 -21 -260 -15 -163 -5 -209 51 -230 34 -13 3234 -13
3268 0 44 16 60 54 57 134 -1 39 -4 85 -6 101 -2 17 -7 71 -10 120 -4 50 -8
106 -10 125 -2 19 -6 76 -10 125 -4 50 -8 110 -10 135 -2 25 -6 81 -10 125 -3
44 -8 105 -10 135 -3 30 -7 89 -10 130 -3 41 -8 100 -10 130 -3 30 -7 89 -10
130 -3 41 -7 98 -10 125 -3 28 -7 88 -10 135 -3 47 -7 108 -10 135 -3 28 -7
82 -10 120 -3 39 -7 93 -10 120 -2 28 -7 93 -11 145 -3 52 -7 109 -9 125 -1
17 -5 68 -9 115 -4 47 -9 110 -12 141 -4 48 -1 65 20 107 57 113 115 283 145
431 34 165 35 457 2 630 -26 132 -75 287 -126 398 -42 92 -136 253 -147 253
-4 0 -8 5 -8 11 0 17 -109 149 -195 234 -245 246 -555 406 -910 471 -77 14
-426 29 -437 19z"/>
</g>
</svg>
